<?xml version="1.0" encoding="iso-8859-1"?>
<!-- Generator: Adobe Illustrator 19.0.0, SVG Export Plug-In . SVG Version: 6.00 Build 0)  -->
<svg version="1.1" id="Capa_1" xmlns="http://www.w3.org/2000/svg" xmlns:xlink="http://www.w3.org/1999/xlink" x="0px" y="0px"
	 viewBox="0 0 512 512" style="enable-background:new 0 0 512 512;" xml:space="preserve">
<circle style="fill:#26406D;" cx="256" cy="256" r="256"/>
<path style="fill:#11244F;" d="M512,256c0-7.326-0.325-14.576-0.928-21.746L400.875,123.313l-283.891,271.57l116.939,116.16
	C241.201,511.664,248.561,512,256,512C397.385,512,512,397.385,512,256z"/>
<circle style="fill:#347FEA;" cx="256" cy="256" r="196.5"/>
<path style="fill:#1B56DB;" d="M256,59.5c-0.143,0-0.285,0.005-0.429,0.005v392.989c0.143,0,0.285,0.005,0.429,0.005
	c108.524,0,196.5-87.976,196.5-196.5S364.524,59.5,256,59.5z"/>
<circle style="fill:#FFFFFF;" cx="256" cy="256" r="163.5"/>
<path style="fill:#E6E6E6;" d="M256,92.5c-0.143,0-0.285,0.005-0.429,0.005v326.989c0.143,0,0.285,0.005,0.429,0.005
	c90.299,0,163.5-73.202,163.5-163.5S346.299,92.5,256,92.5z"/>
<g>
	<path style="fill:#FF1B1B;" d="M197.223,282.27H152.49v-10.09c3.418-2.652,6.843-5.469,10.274-8.449s6.181-5.551,8.246-7.711
		c3.087-3.199,5.281-5.988,6.582-8.367c1.302-2.379,1.952-4.73,1.952-7.055c0-2.789-0.836-4.942-2.507-6.46
		s-4.075-2.276-7.213-2.276c-2.348,0-4.815,0.52-7.404,1.559c-2.59,1.04-4.994,2.365-7.214,3.979h-1.225v-13.576
		c1.812-0.847,4.483-1.695,8.018-2.543c3.532-0.847,7.072-1.271,10.618-1.271c7.143,0,12.59,1.606,16.34,4.819
		s5.625,7.759,5.625,13.638c0,3.855-0.899,7.52-2.697,10.992c-1.799,3.473-4.548,7.055-8.247,10.746
		c-2.321,2.297-4.655,4.409-7.002,6.337c-2.348,1.928-4.019,3.275-5.014,4.04h25.601L197.223,282.27L197.223,282.27z"/>
	<path style="fill:#FF1B1B;" d="M253.742,268.201h-7.769v14.232H231.93v-14.232h-27.59v-11.566l26.671-35.438h14.962v35.848h7.769
		L253.742,268.201L253.742,268.201z M231.931,257.045v-22.109l-16.591,22.109H231.931z"/>
</g>
<g>
	<path style="fill:#D60000;" d="M303.641,218.449l-30.347,77.109h-11.746l30.223-77.109H303.641z"/>
	<path style="fill:#D60000;" d="M361.499,233.338l-25.791,48.932H319.33l26.775-49.383h-29.263v-11.689h44.656v12.14H361.499z"/>
</g>
<rect x="246" y="105.25" style="fill:#1B56DB;" width="20" height="39"/>
<rect x="255.57" y="105.25" style="fill:#164BA8;" width="10.429" height="39"/>
<rect x="246" y="367.75" style="fill:#1B56DB;" width="20" height="39"/>
<g>
	<rect x="255.57" y="367.75" style="fill:#164BA8;" width="10.429" height="39"/>
	<rect x="367.75" y="246" style="fill:#164BA8;" width="39" height="20"/>
</g>
<rect x="105.25" y="246" style="fill:#1B56DB;" width="39" height="20"/>
<rect x="338.812" y="143.685" transform="matrix(-0.7071 -0.7071 0.7071 -0.7071 480.0698 525.2218)" style="fill:#164BA8;" width="20" height="39"/>
<rect x="153.178" y="329.3" transform="matrix(-0.7071 -0.7071 0.7071 -0.7071 31.9235 710.8235)" style="fill:#1B56DB;" width="20" height="39"/>
<rect x="329.31" y="338.807" transform="matrix(-0.7071 -0.7071 0.7071 -0.7071 348.812 842.0969)" style="fill:#164BA8;" width="39" height="20"/>
<rect x="143.69" y="153.183" transform="matrix(-0.7071 -0.7071 0.7071 -0.7071 163.1947 393.9641)" style="fill:#1B56DB;" width="39" height="20"/>
<g>
</g>
<g>
</g>
<g>
</g>
<g>
</g>
<g>
</g>
<g>
</g>
<g>
</g>
<g>
</g>
<g>
</g>
<g>
</g>
<g>
</g>
<g>
</g>
<g>
</g>
<g>
</g>
<g>
</g>
</svg>
